<svg width="589" height="380" viewBox="0 0 589 380" fill="none" xmlns="http://www.w3.org/2000/svg">
<path d="M575.6 95.2448L367.432 56.3769L367.562 55.683L575.729 94.5509L575.6 95.2448Z" fill="white" fill-opacity="0.4"/>
<path d="M128.759 280.376L128.63 281.069L127.936 280.94L128.066 280.246L128.759 280.376Z" fill="white" fill-opacity="0.4"/>
<path d="M129.278 277.6L129.019 278.988L128.325 278.858L128.584 277.47L129.278 277.6Z" fill="white" fill-opacity="0.4"/>
<path d="M129.796 274.824L129.537 276.212L128.843 276.083L129.102 274.695L129.796 274.824Z" fill="white" fill-opacity="0.4"/>
<path d="M130.314 272.049L130.055 273.437L129.361 273.307L129.62 271.919L130.314 272.049Z" fill="white" fill-opacity="0.4"/>
<path d="M130.832 269.273L130.573 270.661L129.879 270.531L130.139 269.144L130.832 269.273Z" fill="white" fill-opacity="0.4"/>
<path d="M131.351 266.498L131.092 267.885L130.398 267.756L130.657 266.368L131.351 266.498Z" fill="white" fill-opacity="0.4"/>
<path d="M131.869 263.722L131.61 265.11L130.916 264.98L131.175 263.593L131.869 263.722Z" fill="white" fill-opacity="0.4"/>
<path d="M132.387 260.947L132.128 262.334L131.434 262.205L131.693 260.817L132.387 260.947Z" fill="white" fill-opacity="0.4"/>
<path d="M132.905 258.171L132.646 259.559L131.952 259.429L132.211 258.041L132.905 258.171Z" fill="white" fill-opacity="0.4"/>
<path d="M133.424 255.395L133.164 256.783L132.471 256.654L132.73 255.266L133.424 255.395Z" fill="white" fill-opacity="0.4"/>
<path d="M133.942 252.62L133.683 254.008L132.989 253.878L133.248 252.49L133.942 252.62Z" fill="white" fill-opacity="0.4"/>
<path d="M134.46 249.844L134.201 251.232L133.507 251.103L133.766 249.715L134.46 249.844Z" fill="white" fill-opacity="0.4"/>
<path d="M134.978 247.069L134.719 248.457L134.025 248.327L134.284 246.939L134.978 247.069Z" fill="white" fill-opacity="0.4"/>
<path d="M135.497 244.293L135.237 245.681L134.544 245.551L134.803 244.164L135.497 244.293Z" fill="white" fill-opacity="0.4"/>
<path d="M136.015 241.518L135.756 242.905L135.062 242.776L135.321 241.388L136.015 241.518Z" fill="white" fill-opacity="0.4"/>
<path d="M136.533 238.742L136.274 240.13L135.58 240L135.839 238.613L136.533 238.742Z" fill="white" fill-opacity="0.4"/>
<path d="M137.051 235.967L136.792 237.354L136.098 237.225L136.357 235.837L137.051 235.967Z" fill="white" fill-opacity="0.4"/>
<path d="M137.569 233.191L137.31 234.579L136.616 234.449L136.876 233.061L137.569 233.191Z" fill="white" fill-opacity="0.4"/>
<path d="M138.088 230.415L137.829 231.803L137.135 231.674L137.394 230.286L138.088 230.415Z" fill="white" fill-opacity="0.4"/>
<path d="M138.606 227.64L138.347 229.028L137.653 228.898L137.912 227.51L138.606 227.64Z" fill="white" fill-opacity="0.4"/>
<path d="M139.124 224.864L138.865 226.252L138.171 226.123L138.43 224.735L139.124 224.864Z" fill="white" fill-opacity="0.4"/>
<path d="M139.642 222.089L139.383 223.476L138.689 223.347L138.949 221.959L139.642 222.089Z" fill="white" fill-opacity="0.4"/>
<path d="M140.161 219.313L139.902 220.701L139.208 220.571L139.467 219.184L140.161 219.313Z" fill="white" fill-opacity="0.4"/>
<path d="M140.679 216.538L140.42 217.925L139.726 217.796L139.985 216.408L140.679 216.538Z" fill="white" fill-opacity="0.4"/>
<path d="M141.197 213.762L140.938 215.15L140.244 215.02L140.503 213.632L141.197 213.762Z" fill="white" fill-opacity="0.4"/>
<path d="M141.715 210.986L141.456 212.374L140.762 212.245L141.022 210.857L141.715 210.986Z" fill="white" fill-opacity="0.4"/>
<path d="M142.234 208.211L141.975 209.599L141.281 209.469L141.54 208.081L142.234 208.211Z" fill="white" fill-opacity="0.4"/>
<path d="M142.752 205.435L142.493 206.823L141.799 206.694L142.058 205.306L142.752 205.435Z" fill="white" fill-opacity="0.4"/>
<path d="M143.27 202.66L143.011 204.048L142.317 203.918L142.576 202.53L143.27 202.66Z" fill="white" fill-opacity="0.4"/>
<path d="M143.788 199.884L143.529 201.272L142.835 201.142L143.094 199.755L143.788 199.884Z" fill="white" fill-opacity="0.4"/>
<path d="M144.307 197.109L144.047 198.496L143.354 198.367L143.613 196.979L144.307 197.109Z" fill="white" fill-opacity="0.4"/>
<path d="M144.825 194.333L144.566 195.721L143.872 195.591L144.131 194.204L144.825 194.333Z" fill="white" fill-opacity="0.4"/>
<path d="M145.343 191.558L145.084 192.945L144.39 192.816L144.649 191.428L145.343 191.558Z" fill="white" fill-opacity="0.4"/>
<path d="M145.861 188.782L145.602 190.17L144.908 190.04L145.167 188.652L145.861 188.782Z" fill="white" fill-opacity="0.4"/>
<path d="M146.38 186.006L146.12 187.394L145.427 187.265L145.686 185.877L146.38 186.006Z" fill="white" fill-opacity="0.4"/>
<path d="M146.898 183.231L146.639 184.619L145.945 184.489L146.204 183.101L146.898 183.231Z" fill="white" fill-opacity="0.4"/>
<path d="M147.416 180.455L147.157 181.843L146.463 181.714L146.722 180.326L147.416 180.455Z" fill="white" fill-opacity="0.4"/>
<path d="M147.934 177.68L147.675 179.067L146.981 178.938L147.24 177.55L147.934 177.68Z" fill="white" fill-opacity="0.4"/>
<path d="M148.453 174.904L148.193 176.292L147.499 176.162L147.759 174.775L148.453 174.904Z" fill="white" fill-opacity="0.4"/>
<path d="M148.971 172.129L148.712 173.516L148.018 173.387L148.277 171.999L148.971 172.129Z" fill="white" fill-opacity="0.4"/>
<path d="M149.489 169.353L149.23 170.741L148.536 170.611L148.795 169.223L149.489 169.353Z" fill="white" fill-opacity="0.4"/>
<path d="M150.007 166.577L149.748 167.965L149.054 167.836L149.313 166.448L150.007 166.577Z" fill="white" fill-opacity="0.4"/>
<path d="M150.525 163.802L150.266 165.19L149.572 165.06L149.832 163.672L150.525 163.802Z" fill="white" fill-opacity="0.4"/>
<path d="M151.044 161.026L150.785 162.414L150.091 162.285L150.35 160.897L151.044 161.026Z" fill="white" fill-opacity="0.4"/>
<path d="M151.562 158.251L151.303 159.639L150.609 159.509L150.868 158.121L151.562 158.251Z" fill="white" fill-opacity="0.4"/>
<path d="M152.08 155.475L151.821 156.863L151.127 156.733L151.386 155.346L152.08 155.475Z" fill="white" fill-opacity="0.4"/>
<path d="M152.598 152.7L152.339 154.087L151.645 153.958L151.905 152.57L152.598 152.7Z" fill="white" fill-opacity="0.4"/>
<path d="M153.117 149.924L152.858 151.312L152.164 151.182L152.423 149.795L153.117 149.924Z" fill="white" fill-opacity="0.4"/>
<path d="M153.635 147.149L153.376 148.536L152.682 148.407L152.941 147.019L153.635 147.149Z" fill="white" fill-opacity="0.4"/>
<path d="M154.153 144.373L153.894 145.761L153.2 145.631L153.459 144.243L154.153 144.373Z" fill="white" fill-opacity="0.4"/>
<path d="M154.671 141.597L154.412 142.985L153.718 142.856L153.977 141.468L154.671 141.597Z" fill="white" fill-opacity="0.4"/>
<path d="M155.19 138.822L154.93 140.21L154.237 140.08L154.496 138.692L155.19 138.822Z" fill="white" fill-opacity="0.4"/>
<path d="M155.708 136.046L155.449 137.434L154.755 137.304L155.014 135.917L155.708 136.046Z" fill="white" fill-opacity="0.4"/>
<path d="M156.226 133.271L155.967 134.659L155.273 134.529L155.532 133.141L156.226 133.271Z" fill="white" fill-opacity="0.4"/>
<path d="M156.744 130.495L156.485 131.883L155.791 131.753L156.05 130.366L156.744 130.495Z" fill="white" fill-opacity="0.4"/>
<path d="M157.263 127.72L157.003 129.107L156.31 128.978L156.569 127.59L157.263 127.72Z" fill="white" fill-opacity="0.4"/>
<path d="M157.781 124.944L157.522 126.332L156.828 126.202L157.087 124.814L157.781 124.944Z" fill="white" fill-opacity="0.4"/>
<path d="M158.299 122.168L158.04 123.556L157.346 123.427L157.605 122.039L158.299 122.168Z" fill="white" fill-opacity="0.4"/>
<path d="M158.817 119.393L158.558 120.781L157.864 120.651L158.123 119.263L158.817 119.393Z" fill="white" fill-opacity="0.4"/>
<path d="M159.336 116.617L159.076 118.005L158.383 117.876L158.642 116.488L159.336 116.617Z" fill="white" fill-opacity="0.4"/>
<path d="M159.854 113.842L159.595 115.23L158.901 115.1L159.16 113.712L159.854 113.842Z" fill="white" fill-opacity="0.4"/>
<path d="M160.372 111.066L160.113 112.454L159.419 112.324L159.678 110.937L160.372 111.066Z" fill="white" fill-opacity="0.4"/>
<path d="M160.89 108.291L160.631 109.678L159.937 109.549L160.196 108.161L160.89 108.291Z" fill="white" fill-opacity="0.4"/>
<path d="M161.408 105.515L161.149 106.903L160.455 106.773L160.715 105.386L161.408 105.515Z" fill="white" fill-opacity="0.4"/>
<path d="M161.927 102.74L161.668 104.127L160.974 103.998L161.233 102.61L161.927 102.74Z" fill="white" fill-opacity="0.4"/>
<path d="M162.445 99.964L162.186 101.352L161.492 101.222L161.751 99.8344L162.445 99.964Z" fill="white" fill-opacity="0.4"/>
<path d="M162.963 97.1884L162.704 98.5762L162.01 98.4466L162.269 97.0588L162.963 97.1884Z" fill="white" fill-opacity="0.4"/>
<path d="M163.481 94.4128L163.222 95.8006L162.528 95.6711L162.788 94.2833L163.481 94.4128Z" fill="white" fill-opacity="0.4"/>
<path d="M164 91.6373L163.741 93.0251L163.047 92.8955L163.306 91.5077L164 91.6373Z" fill="white" fill-opacity="0.4"/>
<path d="M164.518 88.8617L164.259 90.2495L163.565 90.1199L163.824 88.7322L164.518 88.8617Z" fill="white" fill-opacity="0.4"/>
<path d="M165.036 86.0862L164.777 87.4739L164.083 87.3444L164.342 85.9566L165.036 86.0862Z" fill="white" fill-opacity="0.4"/>
<path d="M165.554 83.3106L165.295 84.6984L164.601 84.5688L164.86 83.181L165.554 83.3106Z" fill="white" fill-opacity="0.4"/>
<path d="M166.073 80.535L165.814 81.9228L165.12 81.7933L165.379 80.4055L166.073 80.535Z" fill="white" fill-opacity="0.4"/>
<path d="M166.591 77.7595L166.332 79.1472L165.638 79.0177L165.897 77.6299L166.591 77.7595Z" fill="white" fill-opacity="0.4"/>
<path d="M167.109 74.9839L166.85 76.3717L166.156 76.2421L166.415 74.8543L167.109 74.9839Z" fill="white" fill-opacity="0.4"/>
<path d="M167.498 72.9022L167.368 73.5961L166.674 73.4666L166.804 72.7727L167.498 72.9022Z" fill="white" fill-opacity="0.4"/>
<path d="M422.84 336.003L422.969 335.309L422.275 335.179L422.146 335.873L422.84 336.003Z" fill="white" fill-opacity="0.4"/>
<path d="M423.228 333.921L423.487 332.533L422.793 332.404L422.534 333.791L423.228 333.921Z" fill="white" fill-opacity="0.4"/>
<path d="M423.746 331.145L424.006 329.758L423.312 329.628L423.053 331.016L423.746 331.145Z" fill="white" fill-opacity="0.4"/>
<path d="M424.265 328.37L424.524 326.982L423.83 326.853L423.571 328.24L424.265 328.37Z" fill="white" fill-opacity="0.4"/>
<path d="M424.783 325.594L425.042 324.207L424.348 324.077L424.089 325.465L424.783 325.594Z" fill="white" fill-opacity="0.4"/>
<path d="M425.301 322.819L425.56 321.431L424.866 321.301L424.607 322.689L425.301 322.819Z" fill="white" fill-opacity="0.4"/>
<path d="M425.819 320.043L426.079 318.655L425.385 318.526L425.125 319.914L425.819 320.043Z" fill="white" fill-opacity="0.4"/>
<path d="M426.338 317.268L426.597 315.88L425.903 315.75L425.644 317.138L426.338 317.268Z" fill="white" fill-opacity="0.4"/>
<path d="M426.856 314.492L427.115 313.104L426.421 312.975L426.162 314.363L426.856 314.492Z" fill="white" fill-opacity="0.4"/>
<path d="M427.374 311.717L427.633 310.329L426.939 310.199L426.68 311.587L427.374 311.717Z" fill="white" fill-opacity="0.4"/>
<path d="M427.892 308.941L428.151 307.553L427.458 307.424L427.198 308.811L427.892 308.941Z" fill="white" fill-opacity="0.4"/>
<path d="M428.411 306.165L428.67 304.778L427.976 304.648L427.717 306.036L428.411 306.165Z" fill="white" fill-opacity="0.4"/>
<path d="M428.929 303.39L429.188 302.002L428.494 301.873L428.235 303.26L428.929 303.39Z" fill="white" fill-opacity="0.4"/>
<path d="M429.447 300.614L429.706 299.226L429.012 299.097L428.753 300.485L429.447 300.614Z" fill="white" fill-opacity="0.4"/>
<path d="M429.965 297.839L430.224 296.451L429.531 296.321L429.271 297.709L429.965 297.839Z" fill="white" fill-opacity="0.4"/>
<path d="M430.484 295.063L430.743 293.675L430.049 293.546L429.79 294.934L430.484 295.063Z" fill="white" fill-opacity="0.4"/>
<path d="M431.002 292.288L431.261 290.9L430.567 290.77L430.308 292.158L431.002 292.288Z" fill="white" fill-opacity="0.4"/>
<path d="M431.52 289.512L431.779 288.124L431.085 287.995L430.826 289.382L431.52 289.512Z" fill="white" fill-opacity="0.4"/>
<path d="M432.038 286.736L432.297 285.349L431.603 285.219L431.344 286.607L432.038 286.736Z" fill="white" fill-opacity="0.4"/>
<path d="M432.556 283.961L432.816 282.573L432.122 282.444L431.863 283.831L432.556 283.961Z" fill="white" fill-opacity="0.4"/>
<path d="M433.075 281.185L433.334 279.798L432.64 279.668L432.381 281.056L433.075 281.185Z" fill="white" fill-opacity="0.4"/>
<path d="M433.593 278.41L433.852 277.022L433.158 276.892L432.899 278.28L433.593 278.41Z" fill="white" fill-opacity="0.4"/>
<path d="M434.111 275.634L434.37 274.246L433.676 274.117L433.417 275.505L434.111 275.634Z" fill="white" fill-opacity="0.4"/>
<path d="M434.629 272.859L434.889 271.471L434.195 271.341L433.936 272.729L434.629 272.859Z" fill="white" fill-opacity="0.4"/>
<path d="M435.148 270.083L435.407 268.695L434.713 268.566L434.454 269.954L435.148 270.083Z" fill="white" fill-opacity="0.4"/>
<path d="M435.666 267.308L435.925 265.92L435.231 265.79L434.972 267.178L435.666 267.308Z" fill="white" fill-opacity="0.4"/>
<path d="M436.184 264.532L436.443 263.144L435.749 263.015L435.49 264.402L436.184 264.532Z" fill="white" fill-opacity="0.4"/>
<path d="M436.702 261.756L436.962 260.369L436.268 260.239L436.009 261.627L436.702 261.756Z" fill="white" fill-opacity="0.4"/>
<path d="M437.221 258.981L437.48 257.593L436.786 257.464L436.527 258.851L437.221 258.981Z" fill="white" fill-opacity="0.4"/>
<path d="M437.739 256.205L437.998 254.817L437.304 254.688L437.045 256.076L437.739 256.205Z" fill="white" fill-opacity="0.4"/>
<path d="M438.257 253.43L438.516 252.042L437.822 251.912L437.563 253.3L438.257 253.43Z" fill="white" fill-opacity="0.4"/>
<path d="M438.775 250.654L439.034 249.266L438.341 249.137L438.081 250.525L438.775 250.654Z" fill="white" fill-opacity="0.4"/>
<path d="M439.294 247.879L439.553 246.491L438.859 246.361L438.6 247.749L439.294 247.879Z" fill="white" fill-opacity="0.4"/>
<path d="M439.812 245.103L440.071 243.715L439.377 243.586L439.118 244.973L439.812 245.103Z" fill="white" fill-opacity="0.4"/>
<path d="M440.33 242.327L440.589 240.94L439.895 240.81L439.636 242.198L440.33 242.327Z" fill="white" fill-opacity="0.4"/>
<path d="M440.848 239.552L441.107 238.164L440.414 238.035L440.154 239.422L440.848 239.552Z" fill="white" fill-opacity="0.4"/>
<path d="M441.367 236.776L441.626 235.389L440.932 235.259L440.673 236.647L441.367 236.776Z" fill="white" fill-opacity="0.4"/>
<path d="M441.885 234.001L442.144 232.613L441.45 232.483L441.191 233.871L441.885 234.001Z" fill="white" fill-opacity="0.4"/>
<path d="M442.403 231.225L442.662 229.837L441.968 229.708L441.709 231.096L442.403 231.225Z" fill="white" fill-opacity="0.4"/>
<path d="M442.921 228.45L443.18 227.062L442.486 226.932L442.227 228.32L442.921 228.45Z" fill="white" fill-opacity="0.4"/>
<path d="M443.439 225.674L443.699 224.286L443.005 224.157L442.746 225.545L443.439 225.674Z" fill="white" fill-opacity="0.4"/>
<path d="M443.958 222.899L444.217 221.511L443.523 221.381L443.264 222.769L443.958 222.899Z" fill="white" fill-opacity="0.4"/>
<path d="M444.476 220.123L444.735 218.735L444.041 218.606L443.782 219.993L444.476 220.123Z" fill="white" fill-opacity="0.4"/>
<path d="M444.994 217.347L445.253 215.96L444.559 215.83L444.3 217.218L444.994 217.347Z" fill="white" fill-opacity="0.4"/>
<path d="M445.512 214.572L445.772 213.184L445.078 213.055L444.819 214.442L445.512 214.572Z" fill="white" fill-opacity="0.4"/>
<path d="M446.031 211.796L446.29 210.409L445.596 210.279L445.337 211.667L446.031 211.796Z" fill="white" fill-opacity="0.4"/>
<path d="M446.549 209.021L446.808 207.633L446.114 207.503L445.855 208.891L446.549 209.021Z" fill="white" fill-opacity="0.4"/>
<path d="M447.067 206.245L447.326 204.857L446.632 204.728L446.373 206.116L447.067 206.245Z" fill="white" fill-opacity="0.4"/>
<path d="M447.585 203.47L447.845 202.082L447.151 201.952L446.892 203.34L447.585 203.47Z" fill="white" fill-opacity="0.4"/>
<path d="M448.104 200.694L448.363 199.306L447.669 199.177L447.41 200.564L448.104 200.694Z" fill="white" fill-opacity="0.4"/>
<path d="M448.622 197.918L448.881 196.531L448.187 196.401L447.928 197.789L448.622 197.918Z" fill="white" fill-opacity="0.4"/>
<path d="M449.14 195.143L449.399 193.755L448.705 193.626L448.446 195.013L449.14 195.143Z" fill="white" fill-opacity="0.4"/>
<path d="M449.658 192.367L449.917 190.98L449.224 190.85L448.964 192.238L449.658 192.367Z" fill="white" fill-opacity="0.4"/>
<path d="M450.177 189.592L450.436 188.204L449.742 188.074L449.483 189.462L450.177 189.592Z" fill="white" fill-opacity="0.4"/>
<path d="M450.695 186.816L450.954 185.428L450.26 185.299L450.001 186.687L450.695 186.816Z" fill="white" fill-opacity="0.4"/>
<path d="M451.213 184.041L451.472 182.653L450.778 182.523L450.519 183.911L451.213 184.041Z" fill="white" fill-opacity="0.4"/>
<path d="M451.731 181.265L451.99 179.877L451.297 179.748L451.037 181.136L451.731 181.265Z" fill="white" fill-opacity="0.4"/>
<path d="M452.25 178.49L452.509 177.102L451.815 176.972L451.556 178.36L452.25 178.49Z" fill="white" fill-opacity="0.4"/>
<path d="M452.768 175.714L453.027 174.326L452.333 174.197L452.074 175.584L452.768 175.714Z" fill="white" fill-opacity="0.4"/>
<path d="M453.286 172.938L453.545 171.551L452.851 171.421L452.592 172.809L453.286 172.938Z" fill="white" fill-opacity="0.4"/>
<path d="M453.804 170.163L454.063 168.775L453.37 168.646L453.11 170.033L453.804 170.163Z" fill="white" fill-opacity="0.4"/>
<path d="M454.323 167.387L454.582 166L453.888 165.87L453.629 167.258L454.323 167.387Z" fill="white" fill-opacity="0.4"/>
<path d="M454.841 164.612L455.1 163.224L454.406 163.094L454.147 164.482L454.841 164.612Z" fill="white" fill-opacity="0.4"/>
<path d="M455.359 161.836L455.618 160.448L454.924 160.319L454.665 161.707L455.359 161.836Z" fill="white" fill-opacity="0.4"/>
<path d="M455.877 159.061L456.136 157.673L455.442 157.543L455.183 158.931L455.877 159.061Z" fill="white" fill-opacity="0.4"/>
<path d="M456.395 156.285L456.655 154.897L455.961 154.768L455.702 156.155L456.395 156.285Z" fill="white" fill-opacity="0.4"/>
<path d="M456.914 153.509L457.173 152.122L456.479 151.992L456.22 153.38L456.914 153.509Z" fill="white" fill-opacity="0.4"/>
<path d="M457.432 150.734L457.691 149.346L456.997 149.217L456.738 150.604L457.432 150.734Z" fill="white" fill-opacity="0.4"/>
<path d="M457.95 147.958L458.209 146.571L457.515 146.441L457.256 147.829L457.95 147.958Z" fill="white" fill-opacity="0.4"/>
<path d="M458.468 145.183L458.728 143.795L458.034 143.665L457.775 145.053L458.468 145.183Z" fill="white" fill-opacity="0.4"/>
<path d="M458.987 142.407L459.246 141.019L458.552 140.89L458.293 142.278L458.987 142.407Z" fill="white" fill-opacity="0.4"/>
<path d="M459.505 139.632L459.764 138.244L459.07 138.114L458.811 139.502L459.505 139.632Z" fill="white" fill-opacity="0.4"/>
<path d="M460.023 136.856L460.282 135.468L459.588 135.339L459.329 136.727L460.023 136.856Z" fill="white" fill-opacity="0.4"/>
<path d="M460.541 134.081L460.8 132.693L460.107 132.563L459.847 133.951L460.541 134.081Z" fill="white" fill-opacity="0.4"/>
<path d="M461.06 131.305L461.319 129.917L460.625 129.788L460.366 131.175L461.06 131.305Z" fill="white" fill-opacity="0.4"/>
<path d="M461.578 128.529L461.707 127.836L461.014 127.706L460.884 128.4L461.578 128.529Z" fill="white" fill-opacity="0.4"/>
<path fill-rule="evenodd" clip-rule="evenodd" d="M0.850262 149.594L175.53 29.881L295.206 204.507L469.832 84.8314L589.544 259.512L414.864 379.224L295.189 204.598L120.563 324.274L0.850262 149.594ZM175.347 30.8623L294.262 204.378L120.746 323.293L1.83157 149.777L175.347 30.8623ZM469.649 85.8127L588.563 259.328L415.047 378.243L296.133 204.727L469.649 85.8127Z" fill="white" fill-opacity="0.4"/>
<path d="M83.2848 294.368L83.8678 291.246C83.9036 291.054 83.7772 290.87 83.5856 290.834C83.394 290.798 83.2097 290.924 83.1739 291.116L82.7473 293.401L12.3374 190.662L11.7552 191.061L82.165 293.8L79.8801 293.373C79.6885 293.338 79.5041 293.464 79.4684 293.655C79.4326 293.847 79.5589 294.031 79.7505 294.067L82.873 294.65C83.0646 294.686 83.249 294.56 83.2848 294.368Z" fill="white" fill-opacity="0.4"/>
<path d="M378.077 346.179L377.494 349.301C377.459 349.493 377.274 349.619 377.083 349.583L373.96 349C373.768 348.965 373.642 348.78 373.678 348.589C373.714 348.397 373.898 348.271 374.09 348.307L376.375 348.733L305.965 245.994L306.547 245.595L376.957 348.334L377.383 346.049C377.419 345.858 377.604 345.731 377.795 345.767C377.987 345.803 378.113 345.987 378.077 346.179Z" fill="white" fill-opacity="0.4"/>
<path d="M563.522 293.733L560.399 293.15C560.208 293.114 560.023 293.24 559.987 293.432C559.952 293.624 560.078 293.808 560.27 293.844L562.554 294.27L459.815 364.68L460.214 365.262L562.954 294.853L562.527 297.138C562.491 297.329 562.617 297.513 562.809 297.549C563.001 297.585 563.185 297.459 563.221 297.267L563.804 294.145C563.84 293.953 563.713 293.769 563.522 293.733Z" fill="white" fill-opacity="0.4"/>
<path d="M266.681 238.269L269.803 238.852C269.995 238.888 270.121 239.072 270.085 239.264L269.502 242.386C269.466 242.578 269.282 242.704 269.091 242.668C268.899 242.632 268.773 242.448 268.808 242.256L269.235 239.972L166.496 310.381L166.097 309.799L268.836 239.389L266.551 238.963C266.359 238.927 266.233 238.743 266.269 238.551C266.305 238.359 266.489 238.233 266.681 238.269Z" fill="white" fill-opacity="0.4"/>
<path d="M73.1311 1.42649L281.298 40.2944L281.428 39.6005L73.2607 0.732599L73.1311 1.42649Z" fill="white" fill-opacity="0.4"/>
</svg>
